#!OML:ASF H:\ManfredObstacles\Project 1\Capture day 2\Session 1\male.ASF
:FULLY-SPECIFIED
:DEGREES
321
root 2.51094 14.3084 1.00686 -148.635 -11.2867 -178.185
lowerback 33.2624 6.56277 0.0814254
upperback 15.3734 4.27852 0.321876
thorax -0.178506 0.63772 -0.948696
lowerneck -28.7152 -4.4027 1.89912
upperneck 23.6551 -9.71889 7.65957
head 13.062 -3.03095 0.777596
rclavicle 1.19271e-014 4.65156e-014
rhumerus -24.2546 6.73157 -95.466
rradius 95.0141
rwrist 35.0434
rhand -16.0317 -19.4532
rfingers 7.12502
rthumb 10.1696 -49.1874
lclavicle 1.19271e-014 4.65156e-014
lhumerus -7.91245 -46.4261 84.932
lradius 71.0836
lwrist -24.2333
lhand -13.6424 29.7444
lfingers 7.12502
lthumb 12.4739 59.3521
rfemur -78.1342 6.03704 18.4314
rtibia 53.4515
rfoot -3.68272 -23.5401
rtoes -15.8863
lfemur -65.6565 -4.26303 -12.7348
ltibia 67.5076
lfoot -14.1153 31.3348
ltoes 52.7723
322
root 2.53565 14.345 0.881573 -149.421 -10.6592 -177.893
lowerback 34.1553 6.87005 -0.147646
upperback 15.4489 4.43893 0.395256
thorax -0.433212 0.644448 -0.82898
lowerneck -28.8889 -4.31781 1.82655
upperneck 23.6576 -9.57883 7.6782
head 13.0958 -2.96898 0.821374
rclavicle -7.55382e-014 9.62118e-014
rhumerus -24.017 7.23945 -95.5824
rradius 94.6038
rwrist 34.993
rhand -16.0063 -19.3524
rfingers 7.12502
rthumb 10.194 -49.0854
lclavicle -7.55382e-014 9.62118e-014
lhumerus -7.71652 -46.1918 84.9058
lradius 70.509
lwrist -24.3205
lhand -13.6471 29.8014
lfingers 7.12502
lthumb 12.4694 59.4094
rfemur -76.7763 6.91516 18.7254
rtibia 53.3768
rfoot -3.86178 -23.4861
rtoes -15.1466
lfemur -63.9065 -3.75687 -12.6499
ltibia 67.337
lfoot -14.3812 31.7507
ltoes 52.7417
323
root 2.56016 14.3622 0.761783 -149.684 -10.0652 -177.571
lowerback 34.3234 7.10954 -0.416192
upperback 15.5003 4.59337 0.452253
thorax -0.46058 0.678377 -0.682363
lowerneck -29.0617 -4.22683 1.70834
upperneck 23.6536 -9.42809 7.75196
head 13.1327 -2.89967 0.896039
rclavicle -2.3059e-014 -3.61788e-014
rhumerus -23.7497 7.78572 -95.6903
rradius 94.1099
rwrist 35.0011
rhand -16.062 -19.2461
rfingers 7.12502
rthumb 10.1404 -48.9818
lclavicle -2.3059e-014 -3.61788e-014
lhumerus -7.50643 -45.8996 84.8852
lradius 69.9072
lwrist -24.4588
lhand -13.6638 29.8571
lfingers 7.12502
lthumb 12.4533 59.466
rfemur -76.1081 7.75972 18.9953
rtibia 53.4025
rfoot -4.09312 -23.4434
rtoes -14.524
lfemur -62.9189 -3.18263 -12.4794
ltibia 67.3577
lfoot -14.4996 32.1244
ltoes 52.794
324
root 2.58595 14.3644 0.646775 -149.518 -9.45705 -177.203
lowerback 33.8843 7.31877 -0.774934
upperback 15.5313 4.7667 0.506777
thorax -0.307353 0.743028 -0.47671
lowerneck -29.2469 -4.13251 1.55756
upperneck 23.6468 -9.26248 7.84088
head 13.1723 -2.82461 0.985022
rclavicle -3.18055e-015 3.22031e-014
rhumerus -23.4586 8.37325 -95.7754
rradius 93.5675
rwrist 35.0557
rhand -16.0875 -19.1531
rfingers 7.12502
rthumb 10.1157 -48.8899
lclavicle -3.18055e-015 3.22031e-014
lhumerus -7.2946 -45.5379 84.8945
lradius 69.2858
lwrist -24.634
lhand -13.6757 29.9053
lfingers 7.12502
lthumb 12.4418 59.5149
rfemur -76.0205 8.62472 19.2351
rtibia 53.5278
rfoot -4.37262 -23.3733
rtoes -13.9031
lfemur -62.5569 -2.48539 -12.2582
ltibia 67.5615
lfoot -14.5263 32.4505
ltoes 52.8851
325
root 2.60941 14.3558 0.536602 -149.056 -8.96617 -176.879
lowerback 33.0718 7.41255 -1.10484
upperback 15.5344 4.87041 0.55919
thorax -0.0489837 0.794155 -0.251868
lowerneck -29.4058 -4.02768 1.39555
upperneck 23.6462 -9.07406 7.92131
head 13.2077 -2.74276 1.07788
rclavicle 3.49861e-014 8.34896e-015
rhumerus -23.1583 8.99522 -95.835
rradius 92.9912
rwrist 35.1017
rhand -16.0783 -19.0707
rfingers 7.12502
rthumb 10.1246 -48.8072
lclavicle 3.49861e-014 8.34896e-015
lhumerus -7.10373 -45.114 84.953
lradius 68.6377
lwrist -24.8112
lhand -13.6929 29.9504
lfingers 7.12502
lthumb 12.4252 59.5611
rfemur -76.33 9.34302 19.4275
rtibia 53.7504
rfoot -4.72392 -23.2708
rtoes -13.2742
lfemur -62.6695 -1.867 -12.0328
ltibia 67.9255
lfoot -14.4049 32.7581
ltoes 53.0145
326
root 2.63393 14.3469 0.426129 -148.544 -8.46895 -176.549
lowerback 31.7614 7.49117 -1.48681
upperback 15.7416 4.96563 0.649478
thorax 0.43179 0.837809 0.0610099
lowerneck -29.5472 -3.92546 1.17528
upperneck 23.6514 -8.86084 7.99862
head 13.2426 -2.65621 1.18468
rclavicle -3.97569e-015 -1.36167e-014
rhumerus -22.8402 9.67874 -95.8486
rradius 92.3952
rwrist 35.0987
rhand -16.0157 -19.0025
rfingers 7.12502
rthumb 10.185 -48.736
lclavicle -3.97569e-015 -1.36167e-014
lhumerus -6.94091 -44.6017 85.071
lradius 67.9798
lwrist -24.9992
lhand -13.6934 29.994
lfingers 7.12502
lthumb 12.4247 59.6048
rfemur -76.6863 10.0629 19.6159
rtibia 53.9683
rfoot -5.11112 -23.1766
rtoes -12.7444
lfemur -62.8488 -1.20286 -11.8306
ltibia 68.3005
lfoot -14.185 33.0067
ltoes 53.1659
327
root 2.65726 14.3412 0.315261 -148.077 -8.00782 -176.249
lowerback 30.9538 7.55184 -1.8531
upperback 15.704 5.04011 0.719681
thorax 0.687309 0.870083 0.358028
lowerneck -29.6414 -3.82872 0.955674
upperneck 23.6501 -8.65643 8.08476
head 13.266 -2.57427 1.29389
rclavicle -2.14687e-014 3.58806e-014
rhumerus -22.5089 10.3337 -95.8562
rradius 91.777
rwrist 35.0271
rhand -15.8754 -18.9593
rfingers 7.12502
rthumb 10.3203 -48.6861
lclavicle -2.14687e-014 3.58806e-014
lhumerus -6.79378 -44.0997 85.1947
lradius 67.327
lwrist -25.1519
lhand -13.6832 30.0394
lfingers 7.12502
lthumb 12.4345 59.6495
rfemur -76.9495 10.7124 19.8119
rtibia 54.1531
rfoot -5.50733 -23.0906
rtoes -12.3484
lfemur -62.9735 -0.584498 -11.6696
ltibia 68.6458
lfoot -13.808 33.1953
ltoes 53.321
328
root 2.67691 14.3686 0.190704 -148.543 -7.64184 -176.119
lowerback 31.3831 7.64977 -2.07953
upperback 15.773 5.00266 0.838123
thorax 0.55203 0.79713 0.606591
lowerneck -29.7209 -3.73271 0.770162
upperneck 23.6692 -8.45552 8.12614
head 13.2898 -2.49655 1.38006
rclavicle -3.49861e-014 -6.75868e-015
rhumerus -22.1674 10.9439 -95.87
rradius 91.1243
rwrist 34.9249
rhand -15.7 -18.9042
rfingers 7.12502
rthumb 10.4895 -48.6224
lclavicle -3.49861e-014 -6.75868e-015
lhumerus -6.68692 -43.5948 85.3269
lradius 66.6946
lwrist -25.2891
lhand -13.6525 30.088
lfingers 7.12502
lthumb 12.4642 59.6963
rfemur -75.9081 11.2095 20.0878
rtibia 54.2273
rfoot -6.11521 -23.1031
rtoes -11.942
lfemur -61.811 -0.285222 -11.6718
ltibia 68.7737
lfoot -13.4434 33.3973
ltoes 53.2919
329
root 2.6938 14.3971 0.0665635 -149.016 -7.33507 -176.041
lowerback 31.8449 7.7027 -2.22166
upperback 15.826 4.93108 0.925896
thorax 0.39843 0.715925 0.784389
lowerneck -29.7707 -3.64867 0.622827
upperneck 23.7047 -8.28825 8.15818
head 13.3138 -2.43168 1.45015
rclavicle 5.08889e-014 -2.83268e-014
rhumerus -21.812 11.4488 -95.9172
rradius 90.4236
rwrist 34.8221
rhand -15.4856 -18.8356
rfingers 7.12502
rthumb 10.6963 -48.5433
lclavicle 5.08889e-014 -2.83268e-014
lhumerus -6.60454 -43.155 85.4201
lradius 66.1058
lwrist -25.3601
lhand -13.6107 30.1485
lfingers 7.12502
lthumb 12.5045 59.7544
rfemur -74.8163 11.5872 20.3754
rtibia 54.2519
rfoot -6.66831 -23.1003
rtoes -11.4634
lfemur -60.6814 -0.0736671 -11.6997
ltibia 68.9001
lfoot -12.9408 33.4824
ltoes 53.3875
330
root 2.71038 14.4306 -0.059088 -149.615 -7.06247 -176.003
lowerback 32.9395 7.78491 -2.24585
upperback 15.6113 4.89893 0.96816
thorax -0.0528057 0.666007 0.75771
lowerneck -29.7134 -3.60564 0.647335
upperneck 23.7105 -8.24525 8.16608
head 13.3029 -2.41294 1.45803
rclavicle -1.59028e-014 -2.26615e-014
rhumerus -21.4959 11.6199 -96.0883
rradius 89.6817
rwrist 34.7952
rhand -15.252 -18.7598
rfingers 7.12502
rthumb 10.9217 -48.4558
lclavicle -1.59028e-014 -2.26615e-014
lhumerus -6.5757 -43.0089 85.4117
lradius 65.593
lwrist -25.3364
lhand -13.5624 30.2118
lfingers 7.12502
lthumb 12.5511 59.8148
rfemur -73.5168 11.8996 20.6924
rtibia 54.219
rfoot -7.20298 -23.1263
rtoes -10.9962
lfemur -59.4272 0.0875999 -11.7519
ltibia 69.0304
lfoot -12.3375 33.4364
ltoes 53.5383
331
root 2.72559 14.4557 -0.179954 -149.924 -6.83059 -175.968
lowerback 33.2393 7.78133 -2.23
upperback 15.577 4.85281 0.961134
thorax -0.193803 0.630922 0.743402
lowerneck -29.6693 -3.56335 0.712411
upperneck 23.7345 -8.20638 8.12182
head 13.2971 -2.39808 1.43818
rclavicle -2.8625e-014 4.37326e-015
rhumerus -21.1577 11.72 -96.2763
rradius 88.8764
rwrist 34.8361
rhand -15.0089 -18.6897
rfingers 7.12502
rthumb 11.1562 -48.3731
lclavicle -2.8625e-014 4.37326e-015
lhumerus -6.57186 -42.885 85.3813
lradius 65.1508
lwrist -25.2696
lhand -13.461 30.2874
lfingers 7.12502
lthumb 12.6487 59.8844
rfemur -72.5857 12.1339 20.982
rtibia 54.1922
rfoot -7.65671 -23.1309
rtoes -10.5726
lfemur -58.6685 0.255757 -11.781
ltibia 69.334
lfoot -11.5797 33.2384
ltoes 53.8756
332
root 2.74124 14.4798 -0.300271 -150.187 -6.59277 -175.931
lowerback 33.4622 7.77674 -2.20382
upperback 15.5298 4.82458 0.935223
thorax -0.318748 0.611104 0.702119
lowerneck -29.615 -3.5276 0.838074
upperneck 23.7453 -8.18643 8.0333
head 13.2795 -2.39252 1.3873
rclavicle -2.38542e-015 4.96962e-015
rhumerus -20.8147 11.7137 -96.4935
rradius 88.0229
rwrist 34.9618
rhand -14.7541 -18.6371
rfingers 7.12502
rthumb 11.4019 -48.3071
lclavicle -2.38542e-015 4.96962e-015
lhumerus -6.60491 -42.8208 85.3286
lradius 64.8107
lwrist -25.1365
lhand -13.3332 30.3685
lfingers 7.12502
lthumb 12.7719 59.9578
rfemur -71.7007 12.3583 21.2719
rtibia 54.1559
rfoot -8.09378 -23.1363
rtoes -10.2126
lfemur -58.0615 0.454582 -11.8063
ltibia 69.7834
lfoot -10.7394 32.9098
ltoes 54.2749
333
root 2.75587 14.5028 -0.419535 -150.398 -6.38855 -175.924
lowerback 33.6078 7.73858 -2.18035
upperback 15.4888 4.76326 0.915199
thorax -0.409354 0.576928 0.681649
lowerneck -29.6046 -3.48648 0.963479
upperneck 23.7617 -8.14652 7.90857
head 13.2691 -2.38134 1.3262
rclavicle -1.03368e-014 6.85807e-015
rhumerus -20.4289 11.7243 -96.6863
rradius 87.1144
rwrist 35.0988
rhand -14.4877 -18.6101
rfingers 7.12502
rthumb 11.6588 -48.2658
lclavicle -1.03368e-014 6.85807e-015
lhumerus -6.64491 -42.7167 85.2769
lradius 64.554
lwrist -24.9862
lhand -13.229 30.4355
lfingers 7.12502
lthumb 12.8724 60.0185
rfemur -70.8722 12.5196 21.538
rtibia 54.1265
rfoot -8.53798 -23.1295
rtoes -9.90195
lfemur -57.6351 0.614024 -11.8424
ltibia 70.39
lfoot -9.76637 32.4655
ltoes 54.7343
334
root 2.77028 14.5242 -0.53805 -150.536 -6.18653 -175.922
lowerback 33.6139 7.68276 -2.22039
upperback 15.4731 4.67122 0.92595
thorax -0.4307 0.523751 0.740867
lowerneck -29.6711 -3.42775 1.03123
upperneck 23.7827 -8.04651 7.75838
head 13.273 -2.34984 1.27629
rclavicle -1.78906e-014 -6.55989e-015
rhumerus -19.9775 11.8452 -96.8179
rradius 86.1578
rwrist 35.2486
rhand -14.2161 -18.6006
rfingers 7.12502
rthumb 11.9207 -48.2412
lclavicle -1.78906e-014 -6.55989e-015
lhumerus -6.677 -42.4756 85.2427
lradius 64.3954
lwrist -24.8686
lhand -13.1417 30.4886
lfingers 7.12502
lthumb 12.9566 60.0664
rfemur -70.1274 12.6632 21.7838
rtibia 54.0973
rfoot -8.98293 -23.1018
rtoes -9.65483
lfemur -57.4052 0.780634 -11.8774
ltibia 71.139
lfoot -8.64407 31.906
ltoes 55.3372
